<?xml version="1.0" encoding="utf-8" ?>
<svg baseProfile="tiny" height="1391px" version="1.2" width="2122px" xmlns="http://www.w3.org/2000/svg" xmlns:ev="http://www.w3.org/2001/xml-events" xmlns:xlink="http://www.w3.org/1999/xlink"><defs /><path d="M 2121,719 L 1999,675 L 2092,528 L 1993,426 L 1752,399 L 1792,156 L 1688,16 L 1188,23 L 1161,263 L 1434,264 L 1259,383 L 1046,314 L 1034,78 L 633,110 L 610,335 L 615,31 L 106,98 L 208,307 L 0,418 L 307,939 L 619,1048 L 620,1230 L 1070,1056 L 789,1149 L 909,1215 L 1145,1054 L 1159,1284 L 1061,1319 L 1234,1388 L 1336,1346 L 1379,1063 L 1605,1060 L 1414,1079 L 1549,1131 L 1573,1288 L 1858,1056 L 1829,668 Z" fill="none" stroke="black" stroke-width="0.2mm" /></svg>