<?xml version="1.0" encoding="utf-8" ?>
<svg baseProfile="tiny" height="1376px" version="1.2" width="1450px" xmlns="http://www.w3.org/2000/svg" xmlns:ev="http://www.w3.org/2001/xml-events" xmlns:xlink="http://www.w3.org/1999/xlink"><defs /><path d="M 799,316 L 800,316 L 801,317 L 803,315 L 804,315 L 803,315 L 802,314 L 800,314 L 799,315 Z" fill="none" stroke="black" stroke-width="0.2mm" /><path d="M 1087,39 L 789,12 L 783,87 L 761,1 L 619,18 L 581,221 L 842,245 L 672,358 L 738,375 L 604,394 L 390,307 L 417,90 L 35,103 L 11,478 L 257,429 L 371,598 L 289,781 L 14,836 L 30,1142 L 551,1047 L 528,1297 L 651,1375 L 713,1305 L 663,1136 L 761,1058 L 1206,1063 L 1124,720 L 1271,624 L 1439,637 L 1344,431 L 1095,400 Z" fill="none" stroke="black" stroke-width="0.2mm" /></svg>