<?xml version="1.0" encoding="utf-8" ?>
<svg baseProfile="tiny" height="67px" version="1.2" width="59px" xmlns="http://www.w3.org/2000/svg" xmlns:ev="http://www.w3.org/2001/xml-events" xmlns:xlink="http://www.w3.org/1999/xlink"><defs /><path d="M 22,0 L 19,3 L 21,11 L 17,15 L 2,13 L 0,25 L 4,23 L 13,24 L 16,28 L 16,36 L 10,41 L 5,41 L 1,38 L 0,48 L 1,51 L 18,51 L 20,53 L 20,64 L 26,66 L 30,62 L 28,57 L 30,52 L 43,50 L 42,39 L 46,36 L 53,39 L 58,34 L 57,29 L 52,25 L 47,27 L 43,25 L 44,16 L 42,13 L 33,15 L 30,12 L 32,7 L 30,1 Z" fill="none" stroke="black" stroke-width="0.2mm" /></svg>