<?xml version="1.0" encoding="utf-8" ?>
<svg baseProfile="tiny" height="762px" version="1.2" width="732px" xmlns="http://www.w3.org/2000/svg" xmlns:ev="http://www.w3.org/2001/xml-events" xmlns:xlink="http://www.w3.org/1999/xlink"><defs /><polyline fill="none" points="581,559 578,562 578,565 579,566 579,567 580,568 580,570 576,574 573,574 572,573 571,573 570,574 569,574 568,573 566,573 565,572 563,572 562,571 561,572 561,574 560,575 560,576 561,577 560,578 560,581 559,582 559,584 561,584 563,582 570,582 571,583 572,583 574,585 574,586 575,587 575,595 574,596 574,597 573,598 572,598 571,599 570,599 569,600 564,600 562,598 561,598 560,597 559,598 559,607 560,608 560,610 570,610 571,609 573,609 574,610 577,610 579,612 579,616 578,617 578,618 579,619 579,623 580,623 582,625 585,625 586,624 587,624 588,623 588,622 589,621 589,620 588,619 588,617 587,616 587,614 588,613 588,612 589,611 590,611 591,610 600,610 601,609 602,609 602,604 601,603 601,598 602,597 603,597 605,595 606,595 607,596 608,596 609,597 610,597 611,598 612,598 614,596 615,596 616,595 617,595 617,593 616,592 616,588 614,588 613,587 613,586 611,584 609,584 608,585 607,585 606,586 605,586 604,585 603,585 602,584 602,578 603,577 603,575 602,574 602,573 601,572 600,572 599,573 597,573 596,574 592,574 589,571 589,568 591,566 591,563 589,561 589,560 587,560 586,559" stroke="black" stroke-width="0.2mm" /></svg>